<svg viewBox="0 0 240 240" width="240" height="240" xmlns="http://www.w3.org/2000/svg" preserveAspectRatio="xMidYMid">
  <defs>
    <linearGradient id="telegramGradient" x1="50%" y1="0%" x2="50%" y2="100%">
      <stop offset="0%" stop-color="#2AABEE"/>
      <stop offset="100%" stop-color="#229ED9"/>
    </linearGradient>
  </defs>
  <circle cx="120" cy="120" r="120" fill="url(#telegramGradient)"/>
  <path d="M54.5 117.5c35.5-15.5 59.2-25.7 71-30.6 33.6-14 40.6-16.4 45.1-16.5 1-.05 3.2.23 4.6 1.4 1.2 1 1.5 2.3 1.7 3.3.15.9.34 3 .19 4.6-1.7 18-9.1 61.7-12.9 81.9-1.6 8.5-4.8 11.4-7.8 11.7-6.6.6-11.6-4.4-18-8.6-10-6.6-15.7-10.7-25.4-17.1-11.2-7.4-3.9-11.5 2.4-18.2 1.7-1.7 30.4-27.8 30.9-30.2.07-.3.14-1.4-.52-2-.66-.6-1.6-.4-2.3-.23-1 .26-16.9 10.7-47.7 31.5-4.5 3.1-8.6 4.6-12.3 4.5-4-.1-11.8-2.3-17.6-4.2-7.1-2.3-12.7-3.6-12.2-7.5.25-2 3-4.1 8.3-6.2z" fill="#fff"/>
</svg>
